<?xml version="1.0" encoding="UTF-8" standalone="no"?>
<!DOCTYPE svg PUBLIC "-//W3C//DTD SVG 1.1//EN" "http://www.w3.org/Graphics/SVG/1.1/DTD/svg11.dtd">
<svg version="1.1" xmlns="http://www.w3.org/2000/svg" xmlns:xlink="http://www.w3.org/1999/xlink" preserveAspectRatio="xMidYMid meet" viewBox="0 0 528 528" width="528" height="528"><defs><path d="M264 22C142.5 22 44 120.5 44 242C44 363.5 142.5 462 264 462C385.5 462 484 363.5 484 242C484 120.5 385.5 22 264 22Z" id="b14YJoxGCZ"></path><path d="M247.5 100.1C181.5 107.8 128.7 160.6 122.1 226.6C116.6 277.2 137.5 322.3 172.7 350.9C188.1 364.1 198 382.8 198 403.7C198 403.92 198 405.02 198 407L330 407C330 406.34 330 405.97 330 405.9C330 386.1 338.8 366.3 354.2 353.1C386.1 326.7 407 287.1 407 242C407 157.3 334.4 90.2 247.5 100.1Z" id="aCyQdDnyy"></path><path d="M264 451C245.77 451 231 465.77 231 484C231 502.23 245.77 517 264 517C282.23 517 297 502.23 297 484C297 465.77 282.23 451 264 451Z" id="b4vE0e9I2Q"></path><path d="M242 495C217.8 495 198 475.2 198 451C198 447.33 198 429 198 396L330 396C330 429 330 447.33 330 451C330 475.2 310.2 495 286 495C277.2 495 246.4 495 242 495Z" id="e2xGFjAcL"></path><path d="M234.09 395.8L243.65 395.8L243.65 419.28L234.09 419.28L234.09 395.8Z" id="dzxYvl40Y"></path><path d="M249.53 424.4C249.53 430.29 244.75 435.07 238.87 435.07C232.98 435.07 228.21 430.29 228.21 424.4C228.21 418.52 232.98 413.74 238.87 413.74C244.75 413.74 249.53 418.52 249.53 424.4Z" id="d2xKFyKIzt"></path><path d="M291.21 421L291.21 428.52L245.13 428.52L245.13 421L291.21 421Z" id="b3z7xki04v"></path><path d="M309.32 424.4C309.32 430.29 304.54 435.07 298.66 435.07C292.77 435.07 288 430.29 288 424.4C288 418.52 292.77 413.74 298.66 413.74C304.54 413.74 309.32 418.52 309.32 424.4Z" id="a2eHC7DWSZ"></path><path d="M244.21 424.24C244.21 427.27 241.74 429.74 238.71 429.74C235.67 429.74 233.21 427.27 233.21 424.24C233.21 421.2 235.67 418.74 238.71 418.74C241.74 418.74 244.21 421.2 244.21 424.24Z" id="b4cj39Wan"></path><path d="M304.21 424.24C304.21 427.27 301.74 429.74 298.71 429.74C295.67 429.74 293.21 427.27 293.21 424.24C293.21 421.2 295.67 418.74 298.71 418.74C301.74 418.74 304.21 421.2 304.21 424.24Z" id="c2b2ekdRlb"></path><path d="M309.32 455.34C309.32 461.22 304.54 466 298.66 466C292.77 466 288 461.22 288 455.34C288 449.45 292.77 444.67 298.66 444.67C304.54 444.67 309.32 449.45 309.32 455.34Z" id="b6MaS1N7z"></path><path d="M304.21 455C304.21 458.04 301.74 460.5 298.71 460.5C295.67 460.5 293.21 458.04 293.21 455C293.21 451.96 295.67 449.5 298.71 449.5C301.74 449.5 304.21 451.96 304.21 455Z" id="b77zGejX8"></path><path d="M293.21 451.57L293.21 459.1L264 459.1L264 451.58L293.21 451.57Z" id="bJH7Adgfh"></path><path d="M238.7 490.62L244.18 494.18L269.59 455.05L264.11 451.49L238.7 490.62Z" id="d1QIjNhjXW"></path><path d="M244.5 494.03L243.92 495L240.5 495L237.75 495L236 494.65L238.86 490.49L244.5 494.03Z" id="i2InDkQJjs"></path></defs><g><g><g><use xlink:href="#b14YJoxGCZ" opacity="1" fill="#fff59d" fill-opacity="1"></use><g><use xlink:href="#b14YJoxGCZ" opacity="1" fill-opacity="0" stroke="#000000" stroke-width="1" stroke-opacity="0"></use></g></g><g><use xlink:href="#aCyQdDnyy" opacity="1" fill="#fbc02d" fill-opacity="1"></use><g><use xlink:href="#aCyQdDnyy" opacity="1" fill-opacity="0" stroke="#000000" stroke-width="1" stroke-opacity="0"></use></g></g><g><use xlink:href="#b4vE0e9I2Q" opacity="1" fill="#222222" fill-opacity="1"></use><g><use xlink:href="#b4vE0e9I2Q" opacity="1" fill-opacity="0" stroke="#000000" stroke-width="1" stroke-opacity="0"></use></g></g><g><use xlink:href="#e2xGFjAcL" opacity="1" fill="#313131" fill-opacity="1"></use><g><use xlink:href="#e2xGFjAcL" opacity="1" fill-opacity="0" stroke="#000000" stroke-width="1" stroke-opacity="0"></use></g></g><g><use xlink:href="#dzxYvl40Y" opacity="1" fill="#b6b6b6" fill-opacity="1"></use></g><g><use xlink:href="#d2xKFyKIzt" opacity="1" fill="#b6b6b6" fill-opacity="1"></use></g><g><use xlink:href="#b3z7xki04v" opacity="1" fill="#b6b6b6" fill-opacity="1"></use></g><g><use xlink:href="#a2eHC7DWSZ" opacity="1" fill="#b6b6b6" fill-opacity="1"></use></g><g><use xlink:href="#b4cj39Wan" opacity="1" fill="#313131" fill-opacity="1"></use></g><g><use xlink:href="#c2b2ekdRlb" opacity="1" fill="#313131" fill-opacity="1"></use></g><g><use xlink:href="#b6MaS1N7z" opacity="1" fill="#b6b6b6" fill-opacity="1"></use></g><g><use xlink:href="#b77zGejX8" opacity="1" fill="#313131" fill-opacity="1"></use></g><g><use xlink:href="#bJH7Adgfh" opacity="1" fill="#b6b6b6" fill-opacity="1"></use></g><g><use xlink:href="#d1QIjNhjXW" opacity="1" fill="#b6b6b6" fill-opacity="1"></use></g><g><use xlink:href="#i2InDkQJjs" opacity="1" fill="#b6b6b6" fill-opacity="1"></use></g></g></g></svg>